<svg width="22" height="22" viewBox="0 0 22 22" fill="none" xmlns="http://www.w3.org/2000/svg">
<path d="M19.5312 0H2.34375C1.0498 0 0 1.0498 0 2.34375V19.5312C0 20.8252 1.0498 21.875 2.34375 21.875H19.5312C20.8252 21.875 21.875 20.8252 21.875 19.5312V2.34375C21.875 1.0498 20.8252 0 19.5312 0ZM6.85547 14.0723H4.58008C4.31152 14.0723 4.15527 13.8135 4.28711 13.5693L6.69434 9.33594C6.69922 9.33594 6.69922 9.33105 6.69434 9.32617L5.16113 6.68945C5.01465 6.41602 5.1709 6.19629 5.4541 6.19629H7.72949C7.9834 6.19629 8.19336 6.33789 8.35938 6.62109L9.91699 9.32129C9.85352 9.43359 9.03809 10.8691 7.4707 13.6279C7.2998 13.9307 7.09473 14.0723 6.85547 14.0723ZM17.583 3.61816L12.5635 12.4414V12.4512L15.7617 18.2617C15.8984 18.5107 15.7666 18.7549 15.4687 18.7549H13.1934C12.9248 18.7549 12.7197 18.6133 12.5635 18.3301L9.34082 12.4561C9.45312 12.2559 11.1377 9.28711 14.3896 3.55469C14.5508 3.27148 14.751 3.12988 15 3.12988H17.29C17.5684 3.125 17.7197 3.35938 17.583 3.61816Z" fill="black"/>
</svg>
